PathFileType	4	(X/Y/Z)	C:/Users/opensim2020/Desktop/walking_exp_matlab/subject01_walking11_straight_04.trc																																																																																																																																		
DataRate	CameraRate	NumFrames	NumMarkers	Units	OrigDataRate	OrigDataStartFrame	OrigNumFrames																																																																																																																														
100	100	4	44	mm	100	3870	278																																																																																																																														
Frame#	Time	LFHD			RFHD			LBHD			RBHD			C7			T10			CLAV			STRN			RBAK			LSHO			LUPA			LELB			LFRM			LWRA			LWRB			LFIN			RSHO			RUPA			RELB			RFRM			RWRA			RWRB			RFIN			LASI			RASI			LPSI			RPSI			LTHI			LKNE			LTIB			LANK			LHEE			LTOE			RTHI			RKNE			RTIB			RANK			RHEE			RTOE			*39			*40			*41			*42			*43		
		X1	Y1	Z1	X2	Y2	Z2	X3	Y3	Z3	X4	Y4	Z4	X5	Y5	Z5	X6	Y6	Z6	X7	Y7	Z7	X8	Y8	Z8	X9	Y9	Z9	X10	Y10	Z10	X11	Y11	Z11	X12	Y12	Z12	X13	Y13	Z13	X14	Y14	Z14	X15	Y15	Z15	X16	Y16	Z16	X17	Y17	Z17	X18	Y18	Z18	X19	Y19	Z19	X20	Y20	Z20	X21	Y21	Z21	X22	Y22	Z22	X23	Y23	Z23	X24	Y24	Z24	X25	Y25	Z25	X26	Y26	Z26	X27	Y27	Z27	X28	Y28	Z28	X29	Y29	Z29	X30	Y30	Z30	X31	Y31	Z31	X32	Y32	Z32	X33	Y33	Z33	X34	Y34	Z34	X35	Y35	Z35	X36	Y36	Z36	X37	Y37	Z37	X38	Y38	Z38	X39	Y39	Z39	X40	Y40	Z40	X41	Y41	Z41	X42	Y42	Z42	X43	Y43	Z43	X44	Y44	Z44
																																																																																																																																					
1	0	-1009.92456	1679.84167	1035.14673	-977.17676	1686.00757	1145.68616	-1121.95764	1633.97827	1063.84119	-1091.17761	1639.95898	1181.13525	-1147.60303	1437.28149	1088.2262	-1176.77271	1143.25647	1091.20667	-1002.49915	1373.8645	1098.68274	-955.19641	1219.78186	1093.23022	-1203.73413	1238.78601	1156.72803	-1051.99036	1407.48718	933.41241	-1074.875	1224.28503	845.02448	-1082.73523	1072.18726	842.63141	-1033.81702	969.14307	817.27838	-943.3739	863.36108	835.4024	-996.94702	852.35413	810.5874	-940.38043	789.10309	800.33984	-1083.34131	1397.32629	1242.90527	-1144.82715	1193.36389	1334.86719	-1138.1748	1069.29187	1335.93213	-1110.10962	953.45404	1368.92285	-1023.08563	839.8302	1360.98792	-1072.23828	838.84332	1393.22339	-1033.4646	760.87646	1394.32739	-1004.30725	933.75305	988.84131	-1005.98303	940.49091	1205.25159	-1189.92175	949.0127	1038.53186	-1190.12146	955.71295	1184.29089	-1008.5639	601.01245	929.89319	-1017.19257	467.52521	938.5697	-1161.38855	352.01843	924.28705	-1325.29956	201.01247	961.8537	-1376.14221	208.6263	1015.44141	-1256.06921	74.1054	969.8866	-1028.88538	609.08356	1256.45691	-995.49829	454.12866	1227.12341	-1040.38818	282.24265	1232.51563	-1063.54089	79.22787	1185.47522	-1114.4425	40.84386	1137.26038	-923.84491	40.96692	1183.59912	-993.17633	1719.40356	1125.08215	-1973.01465	1023.59253	3101.93823	-2012.42737	1021.95691	3140.85449	NaN	NaN	NaN	NaN	NaN	NaN
2	0.01	-1002.4364	1679.84802	1036.46301	-969.62732	1686.05664	1146.77356	-1114.53601	1634.21631	1065.08435	-1083.68982	1640.20166	1182.36951	-1140.58423	1437.74866	1089.65259	-1170.58997	1143.84058	1092.61865	-995.66663	1373.8905	1099.75122	-948.82758	1219.73376	1094.27197	-1197.24121	1239.5166	1158.37939	-1045.39246	1407.71167	934.61395	-1069.79126	1224.51465	846.46301	-1078.89673	1072.54187	844.41034	-1031.37769	969.00525	818.82507	-942.03809	862.0578	836.53613	-995.9491	851.63037	811.92975	-940.48425	787.586	801.60028	-1075.98926	1397.52637	1244.16663	-1136.96973	1193.83167	1336.65234	-1130.15454	1069.54871	1337.72021	-1101.14941	953.90051	1370.63025	-1013.35315	841.09857	1362.2334	-1062.17261	839.67609	1394.79529	-1022.42297	762.01617	1395.95203	-998.33099	934.2854	990.2373	-1000.31104	940.5274	1206.95886	-1183.88391	949.49469	1039.44263	-1184.50879	955.85144	1185.23462	-997.98584	602.67261	930.33118	-1003.77399	469.34375	939.0058	-1147.87561	354.07458	925.48859	-1310.13452	201.06306	963.98572	-1361.448	207.40147	1017.69147	-1238.58838	75.81701	971.01068	-1024.62268	608.68872	1257.06665	-992.39172	453.56244	1227.43433	-1038.76941	282.24954	1232.54871	-1063.2876	79.11349	1185.30371	-1114.41846	40.95295	1137.15198	-923.91412	41.01398	1183.44092	-985.42651	1719.53186	1126.40979	-1973.21997	1023.32507	3102.02246	-2012.49377	1022.03766	3140.65796	NaN	NaN	NaN	NaN	NaN	NaN
3	0.02	-994.93573	1679.88599	1037.54468	-962.06427	1686.05603	1147.93298	-1107.13232	1634.55627	1066.33716	-1076.22473	1640.48157	1183.63074	-1133.73499	1438.18237	1091.03784	-1164.4635	1144.39111	1093.96631	-988.89355	1373.91345	1100.84241	-942.46375	1219.66479	1095.49634	-1190.73657	1240.20459	1160.0094	-1038.76538	1407.87732	935.78046	-1064.56287	1224.72876	847.7804	-1075.08679	1073.04065	846.01813	-1028.72986	968.78442	820.3396	-940.77386	860.7226	837.61505	-994.86438	850.99377	813.36377	-940.36096	786.28217	802.75873	-1068.75647	1397.82764	1245.38342	-1129.19495	1194.2876	1338.38013	-1122.35461	1070.02075	1339.77856	-1092.16553	954.5647	1372.6333	-1003.25262	842.59338	1363.89783	-1051.8678	840.60522	1396.39233	-1011.44238	763.32806	1397.27637	-992.38312	934.96851	991.7019	-994.6355	940.64307	1208.47998	-1177.86938	950.05219	1040.354	-1178.90466	955.96814	1186.11145	-987.04291	604.33459	930.49927	-990.64569	471.04517	939.44476	-1134.14807	355.80566	926.94836	-1294.91772	200.33066	966.02942	-1346.17456	205.36891	1020.03448	-1219.90234	77.06943	972.27917	-1020.46912	608.34308	1257.56909	-989.41296	452.96396	1227.86853	-1037.24512	282.04465	1232.60071	-1063.04065	79.11633	1185.08606	-1114.19043	41.06454	1136.93433	-923.63184	40.83696	1183.40491	-978.00507	1719.37195	1127.22876	-1973.26416	1023.51575	3101.79199	-2012.55835	1022.08099	3140.73682	NaN	NaN	NaN	NaN	NaN	NaN
4	0.03	-987.49677	1679.99133	1038.44629	-954.41418	1686.02319	1148.97473	-1099.70239	1634.9502	1067.48145	-1068.70715	1640.7887	1184.72913	-1126.95569	1438.62329	1092.31262	-1158.3645	1144.93909	1095.23047	-982.23077	1373.98914	1101.83374	-936.12726	1219.62939	1096.49512	-1184.28796	1240.87793	1161.49597	-1032.33374	1408.13708	936.87219	-1059.32935	1224.95081	849.16901	-1071.04468	1073.44971	847.633	-1026.09106	968.66455	821.76074	-939.40332	859.46997	838.69037	-993.84595	850.48285	814.73291	-940.04321	784.92139	803.88708	-1061.81006	1398.16968	1246.25464	-1121.50903	1194.80884	1340.10754	-1114.50073	1070.40833	1341.61157	-1083.20911	955.08942	1374.28943	-993.30109	843.96625	1365.37354	-1041.87988	841.5495	1398.19922	-1000.60791	764.98889	1399.49426	-986.42822	935.54291	993.09619	-988.94965	940.7616	1209.97424	-1171.76379	950.54498	1041.2052	-1173.21082	956.06799	1186.98328	-976.56274	606.00537	930.81592	-977.81769	472.83865	939.91589	-1120.57373	357.31448	927.9621	-1278.70044	198.78979	968.3186	-1330.32336	202.34215	1022.53516	-1200.77649	77.93642	973.18176	-1015.83081	607.88104	1257.86987	-986.70013	452.65216	1228.51904	-1035.93799	281.84473	1232.56677	-1062.9845	79.25679	1184.97986	-1114.1134	41.1066	1136.80542	-923.64117	40.90396	1183.30688	-970.22601	1719.54468	1128.36267	-1973.11304	1023.51062	3101.979	-2012.52222	1021.95148	3140.7063	NaN	NaN	NaN	NaN	NaN	NaN
